<svg width="14" height="14" viewBox="0 0 14 14" fill="none" xmlns="http://www.w3.org/2000/svg">
<g clip-path="url(#clip0_1240_270)">
<path d="M3.03333 0C1.36902 0 0 1.36902 0 3.03333V10.9667C0 12.631 1.36902 14 3.03333 14H7.03682C8.58278 14 9.87318 12.8186 10.049 11.3167H8.1535C8.01084 11.7987 7.57642 12.1333 7.03682 12.1333H3.03333C2.37086 12.1333 1.86667 11.6291 1.86667 10.9667V3.03333C1.86667 2.37086 2.37086 1.86667 3.03333 1.86667H7.03682C7.57642 1.86667 8.01084 2.20126 8.1535 2.68333H10.049C9.87318 1.18144 8.58278 0 7.03682 0H3.03333Z" fill="#949BFF"/>
<path d="M11.1266 4.19995C11.004 4.19995 10.8826 4.22408 10.7694 4.27098C10.6562 4.31788 10.5533 4.38663 10.4666 4.4733C10.3799 4.55997 10.3112 4.66286 10.2643 4.7761C10.2173 4.88934 10.1932 5.01071 10.1932 5.13328C10.1932 5.25586 10.2173 5.37723 10.2643 5.49047C10.3112 5.60371 10.3799 5.7066 10.4666 5.79327L10.7399 6.06662H3.82005C3.57252 6.06662 3.33512 6.16495 3.16009 6.33998C2.98505 6.51502 2.88672 6.75242 2.88672 6.99995C2.88672 7.24749 2.98505 7.48488 3.16009 7.65992C3.33512 7.83495 3.57252 7.93328 3.82005 7.93328H10.7399L10.4666 8.20663C10.3799 8.2933 10.3112 8.39619 10.2643 8.50943C10.2173 8.62267 10.1932 8.74405 10.1932 8.86662C10.1932 8.98919 10.2173 9.11056 10.2643 9.2238C10.3112 9.33704 10.3799 9.43994 10.4666 9.5266C10.5533 9.61328 10.6561 9.68203 10.7694 9.72894C10.8826 9.77585 11.004 9.79999 11.1266 9.79999C11.2491 9.79999 11.3705 9.77585 11.4838 9.72894C11.597 9.68203 11.6999 9.61328 11.7866 9.5266L13.485 7.82815C13.6388 7.75097 13.7683 7.63278 13.8592 7.48662C13.95 7.34046 13.9987 7.17203 13.9998 6.99995C13.9995 6.82523 13.9503 6.65408 13.8576 6.50597C13.7649 6.35787 13.6325 6.23875 13.4754 6.16218L11.7866 4.4733C11.6999 4.38663 11.597 4.31788 11.4838 4.27098C11.3705 4.22408 11.2491 4.19995 11.1266 4.19995Z" fill="#949BFF"/>
</g>
<defs>
<clipPath id="clip0_1240_270">
<rect width="14" height="14" fill="white"/>
</clipPath>
</defs>
</svg>
