<svg width="18" height="18" viewBox="0 0 18 18" fill="none" xmlns="http://www.w3.org/2000/svg">
<path d="M1.55884 2.71332C1.55884 2.16103 2.00655 1.71332 2.55884 1.71332H15.4411C15.9934 1.71332 16.4411 2.16103 16.4411 2.71332V13C16.4411 15.7614 14.2025 18 11.4411 18H6.55884C3.79741 18 1.55884 15.7614 1.55884 13V2.71332Z" fill="#949BFF"/>
<path d="M4.34781 0.282983C4.56379 0.116271 4.86506 0.116271 5.08104 0.282984L7.0333 1.78989C7.48643 2.13965 7.23909 2.86486 6.66669 2.86486H2.76216C2.18976 2.86486 1.94243 2.13965 2.39555 1.78989L4.34781 0.282983Z" fill="#949BFF"/>
<path d="M12.9193 0.282983C13.1353 0.116271 13.4366 0.116271 13.6526 0.282984L15.6048 1.78989C16.058 2.13965 15.8106 2.86486 15.2382 2.86486H11.3337C10.7613 2.86486 10.514 2.13965 10.9671 1.78989L12.9193 0.282983Z" fill="#949BFF"/>
<path d="M8.63345 0.282983C8.84944 0.116271 9.1507 0.116271 9.36669 0.282984L11.3189 1.78989C11.7721 2.13965 11.5247 2.86486 10.9523 2.86486H7.04781C6.4754 2.86486 6.22807 2.13965 6.68119 1.78989L8.63345 0.282983Z" fill="#949BFF"/>
<rect x="5.13818" y="5.07138" width="7.91209" height="1.34323" fill="white"/>
<rect x="5.13818" y="7.58992" width="7.91209" height="1.34323" fill="white"/>
<rect x="5.13818" y="10.1085" width="7.91209" height="1.34323" fill="white"/>
<rect x="5.13818" y="12.627" width="7.91209" height="1.34323" fill="white"/>
</svg>
