<svg width="22" height="22" viewBox="0 0 22 22" fill="none" xmlns="http://www.w3.org/2000/svg">
<path d="M20.1666 7.62666V16.5C20.1666 16.9862 19.9734 17.4525 19.6296 17.7964C19.2858 18.1402 18.8195 18.3333 18.3333 18.3333H3.66659C3.18035 18.3333 2.71404 18.1402 2.37022 17.7964C2.02641 17.4525 1.83325 16.9862 1.83325 16.5V7.96583L3.66659 8.965L10.5599 12.7233C10.6951 12.7963 10.8464 12.8341 10.9999 12.8333C11.1613 12.8317 11.3194 12.7874 11.4583 12.705L18.3333 8.69916L20.1666 7.62666Z" fill="#949BFF"/>
<path d="M20.1666 5.5L18.3333 6.58166L10.9999 10.8625L3.66659 6.875L1.83325 5.86666V5.5C1.83325 5.01377 2.02641 4.54745 2.37022 4.20363C2.71404 3.85982 3.18035 3.66666 3.66659 3.66666H18.3333C18.8195 3.66666 19.2858 3.85982 19.6296 4.20363C19.9734 4.54745 20.1666 5.01377 20.1666 5.5Z" fill="#949BFF"/>
</svg>
