<svg width="13" height="13" viewBox="0 0 13 13" fill="none" xmlns="http://www.w3.org/2000/svg">
<path d="M12.9898 12.0101C12.0852 7.92888 6.58466 9.48384 8.64553 6.41128C9.85497 4.53412 10.0727 2.91846 9.28895 1.61099C8.68423 0.602371 7.64412 0 6.50242 0C5.36555 0 4.32544 0.602371 3.72072 1.61099C2.93217 2.91846 3.14987 4.53412 4.36414 6.42062C6.42018 9.4745 0.91484 7.93355 0.0101845 12.0101C-0.0140038 12.1221 0.00534738 12.2295 0.0634001 12.3323C0.12629 12.4303 0.21337 12.5004 0.329476 12.533C0.397203 12.5517 1.99365 12.9953 6.50242 13C11.0112 12.9953 12.6028 12.5517 12.6705 12.533C12.7866 12.5004 12.8737 12.4303 12.9366 12.3323C12.9947 12.2295 13.014 12.1221 12.9898 12.0101Z" fill="#949BFF"/>
</svg>
