<svg width="198" height="61" viewBox="0 0 198 61" fill="none" xmlns="http://www.w3.org/2000/svg">
<path fill-rule="evenodd" clip-rule="evenodd" d="M193.305 0C183.34 0 176.805 4.94703 178.449 14.849C188.351 14.849 193.305 9.95729 193.305 0Z" fill="#07BE54"/>
<path fill-rule="evenodd" clip-rule="evenodd" d="M174.316 37.0553L174.332 36.2098C174.434 30.6305 177.769 28.1254 181.033 28.1254C182.669 28.1254 184.589 29.0184 184.589 31.5393C184.589 33.1989 183.886 34.5107 182.511 35.4353C180.97 36.4626 178.512 37.0079 175.193 37.0474L174.316 37.0553ZM182.116 18.4605C174.727 18.4605 168.571 20.776 164.311 25.1619C160.494 29.0816 158.4 34.4712 158.4 40.3428C158.4 46.6017 160.083 51.525 163.418 54.9706C167.093 58.7638 172.712 60.692 180.132 60.692C189.41 60.692 196.04 57.6574 197.866 56.717L193.938 47.5895C190.334 49.5177 186.502 50.5372 182.835 50.5372C178.228 50.5372 175.264 48.6406 174.703 45.3215L174.545 44.3731H175.541C182.621 44.3257 187.861 43.3774 191.551 41.465C193.622 40.3981 195.21 38.9994 196.269 37.324C197.415 35.4985 198 33.2463 198 30.6463C198 26.5844 196.538 23.4787 193.653 21.4082C190.927 19.4562 187.039 18.4605 182.116 18.4605Z" fill="#FF5A5F"/>
<path fill-rule="evenodd" clip-rule="evenodd" d="M140.256 19.8277V26.6397L141.962 26.7661C142.634 26.8294 143.156 27.5722 143.156 28.2518C143.156 28.3862 143.132 28.5126 143.1 28.6391L137.173 47.1549H136.597L131.247 29.5084C131.009 28.7023 131.033 28.1333 131.318 27.6987C131.594 27.2877 132.1 26.9321 132.867 26.8373L134.7 26.6397V19.8277H113.711V26.5923L116.018 26.8768C116.967 26.9874 117.528 27.3035 117.812 27.9911L128.892 59.396H142.99L153.382 29.2239C153.951 27.5327 154.654 26.9479 156.187 26.7741L157.855 26.6397V19.8277H140.256ZM96.3091 59.396H112.264V52.8685L110.834 52.7341C109.214 52.5524 108.637 51.849 108.637 50.0393V19.796H91.7335V26.5607L94.1122 26.7741C95.7322 26.9558 96.3091 27.6591 96.3091 29.4688V59.396ZM72.625 59.396H89.1335V52.8685L87.3159 52.7262C85.9883 52.5682 85.1111 52.0624 85.1111 50.1105V31.7606C85.1111 22.9018 81.4127 18.7766 73.4706 18.7766C68.4682 18.7766 64.4853 20.8708 62.2568 24.6799L62.154 24.8458H61.3875V19.8039H46.2224V26.6397L48.0479 26.8373C49.5731 27.019 50.0867 27.7224 50.0867 29.619V59.396H66.0421V52.8685L64.6117 52.7341C62.9917 52.5524 62.4148 51.849 62.4148 50.0393V34.9928C62.4148 31.0178 64.7066 28.3467 68.1126 28.3467C71.8663 28.3467 72.625 30.6463 72.625 34.3606V59.396ZM0 26.6397L1.8176 26.7741C3.14524 26.9321 4.02243 27.4458 4.02243 29.3898V47.4394C4.02243 56.2982 7.72085 60.4234 15.663 60.4234C20.6574 60.4234 24.6403 58.3292 26.8768 54.5201L26.9716 54.3542H27.7382V59.396H42.9112V52.8606L41.0778 52.663C39.5605 52.4812 39.0468 51.7779 39.0468 49.8813V19.796H23.0914V26.6397L24.5218 26.7741C26.1418 26.9558 26.7187 27.6591 26.7187 29.4688V44.2072C26.7187 48.1822 24.427 50.8533 21.0209 50.8533C17.2593 50.8533 16.5086 48.5536 16.5086 44.8394V19.8039H0V26.6397Z" fill="#07BE54"/>
</svg>
