<svg width="18" height="18" viewBox="0 0 18 18" fill="none" xmlns="http://www.w3.org/2000/svg">
<path d="M0 12.5437V14.7273C0 16.5324 4.03125 18 9 18C13.9688 18 18 16.5324 18 14.7273V12.5437C16.0641 14.0318 12.525 14.7273 9 14.7273C5.475 14.7273 1.93594 14.0318 0 12.5437ZM0 7.17954V9.81818C0 11.6233 4.03125 13.0909 9 13.0909C13.9688 13.0909 18 11.6233 18 9.81818V7.17954C16.0641 8.91818 12.5203 9.81818 9 9.81818C5.47969 9.81818 1.93594 8.91818 0 7.17954ZM9 0C4.03125 0 0 1.83068 0 4.09091C0 6.35114 4.03125 8.18182 9 8.18182C13.9688 8.18182 18 6.35114 18 4.09091C18 1.83068 13.9688 0 9 0Z" fill="#949BFF"/>
</svg>
