<svg width="26" height="27" viewBox="0 0 26 27" fill="none" xmlns="http://www.w3.org/2000/svg">
<path d="M25.9796 24.944C24.1703 16.4677 13.1693 19.6972 17.2911 13.3157C19.7099 9.41703 20.1453 6.06142 18.5779 3.34591C17.3685 1.25108 15.2882 0 13.0048 0C10.7311 0 8.65088 1.25108 7.44145 3.34591C5.86435 6.06142 6.29974 9.41703 8.72828 13.3351C12.8404 19.6778 1.82968 16.4774 0.020369 24.944C-0.0280076 25.1767 0.0106948 25.3998 0.1268 25.6131C0.252581 25.8168 0.426741 25.9623 0.658952 26.0302C0.794407 26.069 3.98731 26.9903 13.0048 27C22.0224 26.9903 25.2056 26.069 25.341 26.0302C25.5733 25.9623 25.7474 25.8168 25.8732 25.6131C25.9893 25.3998 26.028 25.1767 25.9796 24.944Z" fill="#949BFF"/>
</svg>
